<svg width="92" height="53" viewBox="0 0 92 53" fill="none" xmlns="http://www.w3.org/2000/svg">
<path d="M24.2197 0C29.0263 0 33.2497 1.0968 36.8896 3.29004C40.5296 5.43668 43.3764 8.4234 45.4297 12.25C47.483 16.03 48.5097 20.3932 48.5098 25.3398C48.5098 28.7465 47.9964 31.9204 46.9697 34.8604C45.9897 37.8002 44.5894 40.3437 42.7695 42.4902L48.4404 48.2305L44.0303 52.6396L38.0801 46.6201C36.2135 47.9267 34.1135 48.9299 31.7803 49.6299C29.4936 50.3299 27.043 50.6797 24.4297 50.6797C19.6698 50.6796 15.4464 49.6066 11.7598 47.46C8.0732 45.3133 5.18004 42.3266 3.08008 38.5C1.02674 34.6733 0 30.2865 0 25.3398C1.62916e-05 21.6066 0.583376 18.2 1.75 15.1201C2.96333 12.0401 4.64337 9.37965 6.79004 7.13965C8.93667 4.85308 11.48 3.10295 14.4199 1.88965C17.4065 0.6297 20.6732 3.25245e-05 24.2197 0ZM73.8662 0C77.0394 4.03147e-05 79.7927 0.513415 82.126 1.54004C84.4593 2.52003 86.3729 3.82666 87.8662 5.45996C89.4061 7.09319 90.5029 8.88976 91.1562 10.8496L84.5059 13.0898C83.7126 10.99 82.3595 9.30976 80.4463 8.0498C78.533 6.74316 76.1759 6.08987 73.376 6.08984C70.436 6.08984 68.1026 6.79043 66.376 8.19043C64.6961 9.59036 63.8555 11.5032 63.8555 13.9297C63.8555 15.983 64.5088 17.5704 65.8154 18.6904C67.1688 19.7638 68.9661 20.5796 71.2061 21.1396L76.876 22.54C81.4492 23.66 84.973 25.5263 87.4463 28.1396C89.9663 30.7063 91.2256 33.5304 91.2256 36.6104C91.2255 39.2702 90.5496 41.6737 89.1963 43.8203C87.8896 45.9203 85.9288 47.6004 83.3154 48.8604C80.7489 50.0735 77.5756 50.6797 73.7959 50.6797C71.1827 50.6797 68.8028 50.3761 66.6562 49.7695C64.5564 49.1629 62.7126 48.3469 61.126 47.3203C59.586 46.247 58.3021 45.0567 57.2754 43.75C56.2488 42.4434 55.5254 41.0667 55.1055 39.6201L61.7559 37.4502C62.4559 39.3635 63.7862 41.02 65.7461 42.4199C67.7061 43.8199 70.1095 44.5432 72.9561 44.5898C76.4093 44.5898 79.1162 43.9129 81.0762 42.5596C83.0825 41.1597 84.0859 39.3167 84.0859 37.0303C84.0859 34.9303 83.2227 33.2266 81.4961 31.9199C79.7694 30.5666 77.4824 29.5398 74.6357 28.8398L68.9658 27.3701C66.7258 26.7634 64.6723 25.9003 62.8057 24.7803C60.9857 23.6603 59.5392 22.2364 58.4658 20.5098C57.3926 18.7832 56.8555 16.7067 56.8555 14.2803C56.8555 9.80027 58.303 6.30027 61.1963 3.78027C64.1363 1.26035 68.3596 0 73.8662 0ZM24.2197 6.2998C20.9065 6.29985 17.9433 7.11673 15.3301 8.75C12.7168 10.3833 10.6632 12.6231 9.16992 15.4697C7.72328 18.3164 7.00002 21.6066 7 25.3398C7 29.0732 7.7469 32.3633 9.24023 35.21C10.7336 38.0566 12.7871 40.2964 15.4004 41.9297C18.0603 43.5629 21.0699 44.3798 24.4297 44.3799C26.1097 44.3799 27.6735 44.1464 29.1201 43.6797C30.5666 43.1664 31.9199 42.4902 33.1797 41.6504L26.3896 34.79L30.8701 30.4502L37.8701 37.5195C39.0367 35.8863 39.9237 34.0661 40.5303 32.0596C41.1835 30.0064 41.5098 27.7663 41.5098 25.3398C41.5097 21.6066 40.7628 18.3164 39.2695 15.4697C37.8229 12.6233 35.7929 10.3833 33.1797 8.75C30.6131 7.11676 27.6263 6.2998 24.2197 6.2998Z" fill="black"/>
</svg>
