<?xml version="1.0" standalone="no"?>
<!DOCTYPE svg PUBLIC "-//W3C//DTD SVG 20010904//EN"
 "http://www.w3.org/TR/2001/REC-SVG-20010904/DTD/svg10.dtd">
<svg version="1.0" xmlns="http://www.w3.org/2000/svg"
 width="144.000000pt" height="144.000000pt" viewBox="0 0 144.000000 144.000000"
 preserveAspectRatio="xMidYMid meet">

<g transform="translate(0.000000,144.000000) scale(0.100000,-0.100000)"
fill="#000000" stroke="none">
<path d="M634 1251 c-76 -35 -124 -119 -124 -220 l0 -41 -47 0 c-54 0 -105
-26 -124 -62 -7 -12 -29 -162 -50 -332 -42 -339 -42 -343 16 -396 l27 -25 388
0 388 0 27 25 c58 53 58 57 16 396 -21 170 -43 320 -50 332 -19 36 -70 62
-123 62 l-48 0 0 41 c0 138 -88 239 -210 239 -25 0 -63 -9 -86 -19z m167 -47
c49 -25 73 -71 77 -146 l4 -68 -161 0 -161 0 0 56 c0 90 33 143 107 170 41 15
91 11 134 -12z m-291 -293 c0 -39 20 -68 40 -56 5 3 10 26 10 51 l0 44 160 0
160 0 0 -44 c0 -25 5 -48 10 -51 20 -12 40 17 40 56 0 39 0 39 40 39 29 0 48
-7 70 -27 l30 -28 37 -306 c36 -295 36 -307 19 -333 -9 -15 -28 -31 -42 -36
-33 -13 -695 -13 -728 0 -14 5 -33 21 -42 36 -17 26 -17 38 19 333 l37 306 30
28 c22 20 41 27 70 27 40 0 40 0 40 -39z"/>
</g>
</svg>
